
      <svg xmlns="http://www.w3.org/2000/svg" width="1024" height="1024" viewBox="0 0 1024 1024">
        
        <rect x="0" y="0" width="1024" height="1024" rx="320" ry="320" fill="#8b5cf6" />
        <g transform="translate(512, 512) rotate(0)">
           <g transform="translate(-400, -400)">
             <svg xmlns="http://www.w3.org/2000/svg" width="800" height="800" viewBox="0 0 24 24" fill="#ffffff" stroke="#ffffff" stroke-width="0.96" stroke-linecap="round" stroke-linejoin="round" class="lucide lucide-clipboard-list" fill-opacity="0"><rect width="8" height="4" x="8" y="2" rx="1" ry="1"></rect><path d="M16 4h2a2 2 0 0 1 2 2v14a2 2 0 0 1-2 2H6a2 2 0 0 1-2-2V6a2 2 0 0 1 2-2h2"></path><path d="M12 11h4"></path><path d="M12 16h4"></path><path d="M8 11h.01"></path><path d="M8 16h.01"></path></svg>
           </g>
        </g>
      </svg>
    